<?xml version="1.0" encoding="UTF-8"?>
<svg xmlns="http://www.w3.org/2000/svg" xmlns:xlink="http://www.w3.org/1999/xlink" width="375pt" height="374.999991pt" viewBox="0 0 375 374.999991" version="1.2">
<defs>
<clipPath id="clip1">
  <path d="M 0 12.890625 L 192 12.890625 L 192 267 L 0 267 Z M 0 12.890625 "/>
</clipPath>
<clipPath id="clip2">
  <path d="M 0 282 L 292 282 L 292 362.390625 L 0 362.390625 Z M 0 282 "/>
</clipPath>
</defs>
<g id="surface1">
<g clip-path="url(#clip1)" clip-rule="nonzero">
<path style=" stroke:none;fill-rule:nonzero;fill:rgb(98.429871%,69.018555%,20.388794%);fill-opacity:1;" d="M 0.171875 266.335938 L 146.003906 12.871094 L 191.910156 92.65625 L 173.628906 124.433594 L 146.003906 76.417969 L 54.972656 234.625 L 110.226562 234.625 L 91.984375 266.335938 L 0.171875 266.335938 "/>
</g>
<path style=" stroke:none;fill-rule:nonzero;fill:rgb(98.429871%,69.018555%,20.388794%);fill-opacity:1;" d="M 283.011719 314.351562 L 264.769531 282.644531 L 320.027344 282.644531 L 228.992188 124.429688 L 201.363281 172.445312 L 183.085938 140.671875 L 228.992188 60.882812 L 374.828125 314.351562 L 283.011719 314.351562 "/>
<g clip-path="url(#clip2)" clip-rule="nonzero">
<path style=" stroke:none;fill-rule:nonzero;fill:rgb(98.429871%,69.018555%,20.388794%);fill-opacity:1;" d="M 0.171875 362.367188 L 46.042969 282.644531 L 82.601562 282.644531 L 54.972656 330.660156 L 237.03125 330.660156 L 209.40625 282.644531 L 245.96875 282.644531 L 291.839844 362.367188 L 0.171875 362.367188 "/>
</g>
<path style=" stroke:none;fill-rule:nonzero;fill:rgb(98.429871%,69.018555%,20.388794%);fill-opacity:1;" d="M 172.398438 218.320312 L 146.003906 172.445312 L 119.609375 218.320312 L 83.160156 218.320312 L 146.003906 109.09375 L 208.847656 218.320312 L 172.398438 218.320312 "/>
<path style=" stroke:none;fill-rule:nonzero;fill:rgb(98.429871%,69.018555%,20.388794%);fill-opacity:1;" d="M 83.160156 314.351562 L 146.003906 205.128906 L 164.28125 236.894531 L 137.960938 282.644531 L 190.605469 282.644531 L 208.847656 314.351562 L 83.160156 314.351562 "/>
<path style=" stroke:none;fill-rule:nonzero;fill:rgb(98.429871%,69.018555%,20.388794%);fill-opacity:1;" d="M 166.148438 266.335938 L 184.390625 234.625 L 237.035156 234.625 L 210.710938 188.882812 L 228.992188 157.109375 L 291.839844 266.335938 L 166.148438 266.335938 "/>
</g>
</svg>
